<?xml version="1.0" encoding="UTF-8"?>
<!-- Created with Inkscape (http://www.inkscape.org/) -->
<svg width="864" height="312" version="1.1" viewBox="0 0 864 312" xml:space="preserve" xmlns="http://www.w3.org/2000/svg"><title>IMSA LMP2 class plate</title><defs><clipPath id="vlpb"><path d="m0 288h720v-288h-720z"/></clipPath><clipPath id="vlpa"><path d="m0 288h720v-288h-720z"/></clipPath></defs><g transform="matrix(1.3333 0 0 -1.3333 -48.224 348.32)"><g clip-path="url(#vlpb)"><g transform="translate(648.17 31.801)"><path d="m0 0h-576c-17.336 0-31.44 14.104-31.44 31.44v162c0 17.336 14.104 31.44 31.44 31.44h576c17.336 0 31.44-14.104 31.44-31.44v-162c0-17.336-14.104-31.44-31.44-31.44" style="fill:#fff"/></g></g><g clip-path="url(#vlpa)"><g transform="translate(648.17 261.24)"><path d="m0 0h-576c-19.8 0-36-16.2-36-36v-162c0-19.8 16.2-36 36-36h576c19.8 0 36 16.2 36 36v162c0 19.8-16.2 36-36 36m0-6c16.542 0 30-13.458 30-30v-162c0-16.542-13.458-30-30-30h-576c-16.542 0-30 13.458-30 30v162c0 16.542 13.458 30 30 30h576" style="fill:#3b4ba7"/></g><g transform="translate(76.207 213.55)"><path d="m0 0h43.575v-106.29h68.009v-34.727h-111.58z" style="fill:#3b4ba7"/></g><g transform="translate(207.13 213.55)"><path d="m0 0h57.306l22.101-85.804 21.943 85.804h57.273v-141.02h-35.688v107.54l-27.498-107.54h-32.303l-27.446 107.54v-107.54h-35.688z" style="fill:#3b4ba7"/></g><g transform="translate(437.12 153.43)"><path d="m0 0h10.678c8.399 0 14.3 1.458 17.699 4.377 3.397 2.917 5.099 6.652 5.099 11.206 0 4.425-1.476 8.176-4.425 11.254-2.951 3.079-8.499 4.618-16.642 4.618h-12.409zm-43.768 60.12h72.433c15.775 0 27.591-3.752 35.447-11.255 7.855-7.502 11.784-18.18 11.784-32.032 0-14.235-4.281-25.362-12.842-33.379-8.561-8.016-21.628-12.023-39.199-12.023h-23.855v-52.329h-43.768z" style="fill:#3b4ba7"/></g><g transform="translate(644.13 72.529)"><path d="m0 0h-117.55c1.348 11.606 5.436 22.524 12.265 32.754 6.83 10.227 19.638 22.301 38.429 36.217 11.478 8.528 18.821 15.006 22.029 19.43 3.205 4.426 4.808 8.624 4.808 12.602 0 4.296-1.587 7.967-4.76 11.013-3.176 3.046-7.168 4.57-11.977 4.57-5.002 0-9.09-1.573-12.265-4.713-3.174-3.143-5.306-8.691-6.396-16.642l-39.247 3.174c1.539 11.029 4.36 19.638 8.466 25.827 4.102 6.189 9.891 10.934 17.362 14.238 7.47 3.302 17.811 4.953 31.021 4.953 13.788 0 24.514-1.572 32.177-4.713 7.662-3.143 13.691-7.969 18.085-14.478 4.391-6.509 6.588-13.803 6.588-21.882 0-8.596-2.517-16.803-7.551-24.625-5.035-7.826-14.188-16.418-27.463-25.781-7.887-5.451-13.163-9.267-15.823-11.446-2.662-2.182-5.789-5.036-9.379-8.561h61.179z" style="fill:#3b4ba7"/></g></g></g></svg>
